# Blender v2.77 (sub 0) OBJ File: ''
# www.blender.org
o Circle_Circle.001
v 0.475528 0.000000 0.000000
v 0.951056 0.000000 0.000000
v 0.951056 0.309017 0.000000
v 0.475528 0.309017 0.000000
v -0.475528 0.000000 0.000000
v 0.000000 0.000000 0.000000
v 0.000000 0.309017 0.000000
v -0.475528 0.309017 0.000000
v -0.587785 0.809017 0.000000
v -0.769421 0.559017 0.000000
v -0.293893 0.559017 0.000000
v 0.000000 1.000000 0.000000
v -0.293893 0.904508 0.000000
v 0.000000 0.654509 0.000000
v 0.587785 0.809017 0.000000
v 0.293892 0.904509 0.000000
v 0.293892 0.559017 0.000000
v 0.769421 0.559017 0.000000
v -0.587785 -0.809017 -0.000000
v -0.293893 -0.904509 -0.000000
v -0.293893 -0.559017 -0.000000
v -0.769421 -0.559017 -0.000000
v 0.000000 -1.000000 -0.000000
v 0.293893 -0.904508 -0.000000
v 0.000000 -0.654509 -0.000000
v 0.951056 -0.309017 -0.000000
v 0.475528 -0.309017 -0.000000
v 0.769421 -0.559017 -0.000000
v 0.293893 -0.559017 -0.000000
v 0.587785 -0.809017 -0.000000
v 0.000000 -0.309017 -0.000000
v -0.475528 -0.309017 -0.000000
v -0.951056 -0.309017 -0.000000
v -0.951057 0.309017 0.000000
v -0.951056 0.000000 0.000000
v 0.188922 0.000000 -0.045234
v 0.377844 0.000000 -0.045234
v 0.377844 0.122769 -0.045234
v 0.188922 0.122769 -0.045234
v -0.188922 0.000000 -0.045234
v 0.000000 0.000000 -0.045234
v 0.000000 0.122769 -0.045234
v -0.188922 0.122769 -0.045234
v -0.233520 0.321413 -0.045234
v -0.305682 0.222091 -0.045234
v -0.116760 0.222091 -0.045234
v 0.000000 0.397289 -0.045234
v -0.116760 0.359351 -0.045234
v 0.000000 0.260029 -0.045234
v 0.233520 0.321413 -0.045234
v 0.116760 0.359351 -0.045234
v 0.116760 0.222091 -0.045234
v 0.305682 0.222091 -0.045234
v -0.233520 -0.321413 -0.045234
v -0.116760 -0.359351 -0.045234
v -0.116760 -0.222091 -0.045234
v -0.305682 -0.222091 -0.045234
v 0.000000 -0.397289 -0.045234
v 0.116760 -0.359351 -0.045234
v 0.000000 -0.260029 -0.045234
v 0.377844 -0.122769 -0.045234
v 0.188922 -0.122769 -0.045234
v 0.305682 -0.222091 -0.045234
v 0.116760 -0.222091 -0.045234
v 0.233520 -0.321413 -0.045234
v 0.000000 -0.122769 -0.045234
v -0.188922 -0.122769 -0.045234
v -0.377844 -0.122769 -0.045234
v -0.377844 0.122769 -0.045234
v -0.377844 0.000000 -0.045234
vn 0.0000 -0.0000 1.0000
vn 0.9992 -0.0000 0.0394
vn 0.9506 0.3089 0.0317
vn -0.5875 0.8086 0.0317
vn -0.8084 0.5873 0.0394
vn -0.0000 0.9995 0.0317
vn -0.3088 0.9503 0.0394
vn 0.5875 0.8086 0.0317
vn 0.3088 0.9503 0.0394
vn 0.8084 0.5873 0.0394
vn -0.5875 -0.8086 0.0317
vn -0.3088 -0.9503 0.0394
vn -0.8084 -0.5873 0.0394
vn 0.0000 -0.9995 0.0317
vn 0.3088 -0.9503 0.0394
vn 0.9506 -0.3089 0.0317
vn 0.8084 -0.5873 0.0394
vn 0.5875 -0.8086 0.0317
vn -0.9506 -0.3089 0.0317
vn -0.9506 0.3089 0.0317
vn -0.9992 -0.0000 0.0394
vn 0.7071 -0.0000 0.7071
vn 0.7278 0.2365 0.6437
vn -0.4498 0.6191 0.6437
vn -0.5720 0.4156 0.7071
vn 0.0000 0.7653 0.6437
vn -0.2185 0.6725 0.7071
vn 0.4498 0.6191 0.6437
vn 0.2185 0.6725 0.7071
vn 0.5720 0.4156 0.7071
vn -0.4498 -0.6191 0.6437
vn -0.2185 -0.6725 0.7071
vn -0.5720 -0.4156 0.7071
vn -0.0000 -0.7653 0.6437
vn 0.2185 -0.6725 0.7071
vn 0.7278 -0.2365 0.6437
vn 0.5720 -0.4156 0.7071
vn 0.4498 -0.6191 0.6437
vn -0.7278 -0.2365 0.6437
vn -0.7278 0.2365 0.6437
vn -0.7071 0.0000 0.7071
vn -0.3777 0.5200 -0.7661
vn -0.6153 0.4471 -0.6493
vn 0.3777 0.5200 -0.7661
vn 0.2350 0.7233 -0.6493
vn -0.6153 -0.4471 -0.6493
vn -0.3777 -0.5200 -0.7661
vn -0.6112 0.1988 -0.7661
vn -0.7606 0.0000 -0.6493
vn -0.2350 -0.7233 -0.6493
vn -0.0000 -0.6427 -0.7661
vn -0.6112 -0.1986 -0.7661
vn 0.2350 -0.7233 -0.6493
vn 0.3777 -0.5200 -0.7661
vn 0.6153 -0.4471 -0.6493
vn 0.6112 -0.1986 -0.7661
vn 0.7605 -0.0000 -0.6493
vn 0.6112 0.1986 -0.7661
vn -0.2350 0.7233 -0.6493
vn 0.6153 0.4471 -0.6493
vn 0.0000 0.6427 -0.7661
s 1
f 1//1 2//2 3//3 4//1
f 5//1 6//1 7//1 8//1
f 9//4 10//5 11//1
f 12//6 13//7 14//1
f 15//8 16//9 17//1
f 3//3 18//10 4//1
f 19//11 20//12 21//1
f 19//11 21//1 22//13
f 23//14 24//15 25//1
f 26//16 27//1 28//17
f 28//17 29//1 30//18
f 28//17 27//1 29//1
f 27//1 31//1 29//1
f 25//1 29//1 31//1
f 25//1 24//15 29//1
f 24//15 30//18 29//1
f 22//13 32//1 33//19
f 22//13 21//1 32//1
f 21//1 31//1 32//1
f 21//1 25//1 31//1
f 21//1 20//12 25//1
f 20//12 23//14 25//1
f 4//1 17//1 7//1
f 4//1 18//10 17//1
f 18//10 15//8 17//1
f 17//1 14//1 7//1
f 17//1 16//9 14//1
f 16//9 12//6 14//1
f 14//1 11//1 7//1
f 14//1 13//7 11//1
f 13//7 9//4 11//1
f 11//1 8//1 7//1
f 11//1 10//5 8//1
f 10//5 34//20 8//1
f 35//21 5//1 8//1 34//20
f 33//19 32//1 5//1 35//21
f 32//1 31//1 6//1 5//1
f 6//1 1//1 4//1 7//1
f 31//1 27//1 1//1 6//1
f 27//1 26//16 2//2 1//1
f 36//1 37//22 38//23 39//1
f 40//1 41//1 42//1 43//1
f 44//24 45//25 46//1
f 47//26 48//27 49//1
f 50//28 51//29 52//1
f 38//23 53//30 39//1
f 54//31 55//32 56//1
f 54//31 56//1 57//33
f 58//34 59//35 60//1
f 61//36 62//1 63//37
f 63//37 64//1 65//38
f 63//37 62//1 64//1
f 62//1 66//1 64//1
f 60//1 64//1 66//1
f 60//1 59//35 64//1
f 59//35 65//38 64//1
f 57//33 67//1 68//39
f 57//33 56//1 67//1
f 56//1 66//1 67//1
f 56//1 60//1 66//1
f 56//1 55//32 60//1
f 55//32 58//34 60//1
f 39//1 52//1 42//1
f 39//1 53//30 52//1
f 53//30 50//28 52//1
f 52//1 49//1 42//1
f 52//1 51//29 49//1
f 51//29 47//26 49//1
f 49//1 46//1 42//1
f 49//1 48//27 46//1
f 48//27 44//24 46//1
f 46//1 43//1 42//1
f 46//1 45//25 43//1
f 45//25 69//40 43//1
f 70//41 40//1 43//1 69//40
f 68//39 67//1 40//1 70//41
f 67//1 66//1 41//1 40//1
f 41//1 36//1 39//1 42//1
f 66//1 62//1 36//1 41//1
f 62//1 61//36 37//22 36//1
f 9//4 44//42 45//43 10//5
f 15//8 50//44 51//45 16//9
f 22//13 57//46 54//47 19//11
f 34//20 69//48 70//49 35//21
f 20//12 55//50 58//51 23//14
f 33//19 68//52 57//46 22//13
f 24//15 59//53 65//54 30//18
f 19//11 54//47 55//50 20//12
f 28//17 63//55 61//56 26//16
f 23//14 58//51 59//53 24//15
f 2//2 37//57 38//58 3//3
f 30//18 65//54 63//55 28//17
f 13//7 48//59 44//42 9//4
f 18//10 53//60 50//44 15//8
f 26//16 61//56 37//57 2//2
f 10//5 45//43 69//48 34//20
f 12//6 47//61 48//59 13//7
f 16//9 51//45 47//61 12//6
f 3//3 38//58 53//60 18//10
f 35//21 70//49 68//52 33//19
