# Blender v2.78 (sub 0) OBJ File: 'sun.blend'
# www.blender.org
mtllib sun.mtl
o NurbsCircle
v -1.029206 0.000000 1.029206
v -1.129577 0.000000 0.918315
v -1.215540 0.000000 0.803344
v -1.285714 0.000000 0.690101
v -1.340494 0.000000 0.582686
v -1.381446 0.000000 0.483454
v -1.410711 0.000000 0.393310
v -1.430571 0.000000 0.312110
v -1.443186 0.000000 0.239025
v -1.450468 0.000000 0.172820
v -1.454055 0.000000 0.112024
v -1.455337 0.000000 0.055013
v -1.455517 0.000000 0.000001
v -1.455337 0.000000 -0.055011
v -1.454055 0.000000 -0.112023
v -1.450469 0.000000 -0.172819
v -1.443186 0.000000 -0.239024
v -1.430571 0.000000 -0.312110
v -1.410711 0.000000 -0.393310
v -1.381447 0.000000 -0.483453
v -1.340494 0.000000 -0.582686
v -1.285713 0.000000 -0.690102
v -1.215540 0.000000 -0.803344
v -1.129576 0.000000 -0.918316
v -1.029204 0.000000 -1.029207
v -0.918313 0.000000 -1.129578
v -0.803342 0.000000 -1.215541
v -0.690099 0.000000 -1.285715
v -0.582684 0.000000 -1.340495
v -0.483451 0.000000 -1.381447
v -0.393308 0.000000 -1.410712
v -0.312108 0.000000 -1.430571
v -0.239023 0.000000 -1.443186
v -0.172817 0.000000 -1.450469
v -0.112021 0.000000 -1.454055
v -0.055010 0.000000 -1.455337
v 0.000002 0.000000 -1.455517
v 0.055014 0.000000 -1.455337
v 0.112025 0.000000 -1.454055
v 0.172821 0.000000 -1.450468
v 0.239028 0.000000 -1.443186
v 0.312113 0.000000 -1.430570
v 0.393314 0.000000 -1.410710
v 0.483458 0.000000 -1.381445
v 0.582691 0.000000 -1.340492
v 0.690107 0.000000 -1.285710
v 0.803350 0.000000 -1.215536
v 0.918321 0.000000 -1.129572
v 1.029212 0.000000 -1.029200
v 1.129583 0.000000 -0.918308
v 1.215545 0.000000 -0.803336
v 1.285718 0.000000 -0.690094
v 1.340498 0.000000 -0.582679
v 1.381449 0.000000 -0.483447
v 1.410713 0.000000 -0.393304
v 1.430572 0.000000 -0.312104
v 1.443187 0.000000 -0.239020
v 1.450469 0.000000 -0.172814
v 1.454055 0.000000 -0.112019
v 1.455337 0.000000 -0.055008
v 1.455517 0.000000 0.000004
v 1.455337 0.000000 0.055016
v 1.454055 0.000000 0.112027
v 1.450468 0.000000 0.172823
v 1.443185 0.000000 0.239029
v 1.430570 0.000000 0.312115
v 1.410710 0.000000 0.393315
v 1.381445 0.000000 0.483458
v 1.340492 0.000000 0.582691
v 1.285711 0.000000 0.690106
v 1.215537 0.000000 0.803348
v 1.129574 0.000000 0.918319
v 1.029202 0.000000 1.029209
v 0.918311 0.000000 1.129580
v 0.803340 0.000000 1.215542
v 0.690098 0.000000 1.285715
v 0.582684 0.000000 1.340495
v 0.483452 0.000000 1.381447
v 0.393309 0.000000 1.410711
v 0.312109 0.000000 1.430571
v 0.239024 0.000000 1.443186
v 0.172819 0.000000 1.450468
v 0.112023 0.000000 1.454055
v 0.055012 0.000000 1.455337
v 0.000001 0.000000 1.455517
v -0.055011 0.000000 1.455337
v -0.112022 0.000000 1.454055
v -0.172817 0.000000 1.450468
v -0.239023 0.000000 1.443186
v -0.312107 0.000000 1.430572
v -0.393307 0.000000 1.410712
v -0.483450 0.000000 1.381448
v -0.582681 0.000000 1.340497
v -0.690096 0.000000 1.285717
v -0.803338 0.000000 1.215544
v -0.918309 0.000000 1.129582
l 1 2
l 2 3
l 3 4
l 4 5
l 5 6
l 6 7
l 7 8
l 8 9
l 9 10
l 10 11
l 11 12
l 12 13
l 13 14
l 14 15
l 15 16
l 16 17
l 17 18
l 18 19
l 19 20
l 20 21
l 21 22
l 22 23
l 23 24
l 24 25
l 25 26
l 26 27
l 27 28
l 28 29
l 29 30
l 30 31
l 31 32
l 32 33
l 33 34
l 34 35
l 35 36
l 36 37
l 37 38
l 38 39
l 39 40
l 40 41
l 41 42
l 42 43
l 43 44
l 44 45
l 45 46
l 46 47
l 47 48
l 48 49
l 49 50
l 50 51
l 51 52
l 52 53
l 53 54
l 54 55
l 55 56
l 56 57
l 57 58
l 58 59
l 59 60
l 60 61
l 61 62
l 62 63
l 63 64
l 64 65
l 65 66
l 66 67
l 67 68
l 68 69
l 69 70
l 70 71
l 71 72
l 72 73
l 73 74
l 74 75
l 75 76
l 76 77
l 77 78
l 78 79
l 79 80
l 80 81
l 81 82
l 82 83
l 83 84
l 84 85
l 85 86
l 86 87
l 87 88
l 88 89
l 89 90
l 90 91
l 91 92
l 92 93
l 93 94
l 94 95
l 95 96
l 96 1
o Plane
v 0.383767 0.000000 -1.215244
v -0.383767 0.000000 -1.215244
v 0.000000 0.000000 -1.763483
vn 0.0000 1.0000 0.0000
usemtl None
s off
f 98//1 97//1 99//1
o Plane
v 1.129452 -0.000000 -0.587941
v 0.586723 -0.000000 -1.130670
v 1.245751 -0.000000 -1.246969
vn 0.0000 1.0000 -0.0000
usemtl None
s off
f 101//2 100//2 102//2
o Plane
v 1.215242 -0.000000 0.383769
v 1.215243 -0.000000 -0.383766
v 1.763482 -0.000000 0.000002
vn 0.0000 1.0000 0.0000
usemtl None
s off
f 104//3 103//3 105//3
o Plane
v 0.587942 -0.000001 1.129451
v 1.130671 -0.000000 0.586723
v 1.246970 -0.000001 1.245751
vn 0.0000 1.0000 0.0000
usemtl None
s off
f 107//4 106//4 108//4
o Plane
v -0.383770 -0.000000 1.215243
v 0.383765 -0.000000 1.215244
v -0.000004 -0.000000 1.763483
vn -0.0000 1.0000 0.0000
usemtl None
s off
f 110//5 109//5 111//5
o Plane
v -1.129452 -0.000000 0.587940
v -0.586723 -0.000000 1.130670
v -1.245751 -0.000000 1.246968
vn -0.0000 1.0000 0.0000
usemtl None
s off
f 113//6 112//6 114//6
o Plane
v -1.215243 0.000000 -0.383769
v -1.215243 0.000000 0.383766
v -1.763482 0.000000 -0.000002
vn -0.0000 1.0000 0.0000
usemtl None
s off
f 116//7 115//7 117//7
o Plane
v -0.587939 0.000000 -1.129452
v -1.130669 -0.000000 -0.586724
v -1.246967 -0.000000 -1.245752
vn -0.0000 1.0000 0.0000
usemtl None
s off
f 119//8 118//8 120//8
o Plane
v 0.383767 0.000000 -1.215244
v -0.383767 0.000000 -1.215244
v 0.000000 0.000000 -1.763483
vn 0.0000 1.0000 0.0000
usemtl None
s off
f 122//9 121//9 123//9
o Plane
v 0.383767 0.000000 -1.215244
v -0.383767 0.000000 -1.215244
v 0.000000 0.000000 -1.763483
vn 0.0000 1.0000 0.0000
usemtl None
s off
f 125//10 124//10 126//10
o Plane
v 0.383767 0.000000 -1.215244
v -0.383767 0.000000 -1.215244
v 0.000000 0.000000 -1.763483
vn 0.0000 1.0000 0.0000
usemtl None
s off
f 128//11 127//11 129//11
o Plane
v 0.383767 0.000000 -1.215244
v -0.383767 0.000000 -1.215244
v 0.000000 0.000000 -1.763483
vn 0.0000 1.0000 0.0000
usemtl None
s off
f 131//12 130//12 132//12
o Plane
v 0.383767 0.000000 -1.215244
v -0.383767 0.000000 -1.215244
v 0.000000 0.000000 -1.763483
vn 0.0000 1.0000 0.0000
usemtl None
s off
f 134//13 133//13 135//13
o Plane
v 0.383767 0.000000 -1.215244
v -0.383767 0.000000 -1.215244
v 0.000000 0.000000 -1.763483
vn 0.0000 1.0000 0.0000
usemtl None
s off
f 137//14 136//14 138//14
o Plane
v 0.383767 0.000000 -1.215244
v -0.383767 0.000000 -1.215244
v 0.000000 0.000000 -1.763483
vn 0.0000 1.0000 0.0000
usemtl None
s off
f 140//15 139//15 141//15
o Plane
v 0.383767 0.000000 -1.215244
v -0.383767 0.000000 -1.215244
v 0.000000 0.000000 -1.763483
vn 0.0000 1.0000 0.0000
usemtl None
s off
f 143//16 142//16 144//16
o Plane
v 0.383767 0.000000 -1.215244
v -0.383767 0.000000 -1.215244
v 0.000000 0.000000 -1.763483
vn 0.0000 1.0000 0.0000
usemtl None
s off
f 146//17 145//17 147//17
o Plane
v 0.383767 0.000000 -1.215244
v -0.383767 0.000000 -1.215244
v 0.000000 0.000000 -1.763483
vn 0.0000 1.0000 0.0000
usemtl None
s off
f 149//18 148//18 150//18
o Plane
v 0.383767 0.000000 -1.215244
v -0.383767 0.000000 -1.215244
v 0.000000 0.000000 -1.763483
vn 0.0000 1.0000 0.0000
usemtl None
s off
f 152//19 151//19 153//19
o Plane
v 0.383767 0.000000 -1.215244
v -0.383767 0.000000 -1.215244
v 0.000000 0.000000 -1.763483
vn 0.0000 1.0000 0.0000
usemtl None
s off
f 155//20 154//20 156//20
o Plane
v 0.383767 0.000000 -1.215244
v -0.383767 0.000000 -1.215244
v 0.000000 0.000000 -1.763483
vn 0.0000 1.0000 0.0000
usemtl None
s off
f 158//21 157//21 159//21
o Plane
v 0.383767 0.000000 -1.215244
v -0.383767 0.000000 -1.215244
v 0.000000 0.000000 -1.763483
vn 0.0000 1.0000 0.0000
usemtl None
s off
f 161//22 160//22 162//22
o Plane
v 0.383767 0.000000 -1.215244
v -0.383767 0.000000 -1.215244
v 0.000000 0.000000 -1.763483
vn 0.0000 1.0000 0.0000
usemtl None
s off
f 164//23 163//23 165//23
o Plane
v 0.383767 0.000000 -1.215244
v -0.383767 0.000000 -1.215244
v 0.000000 0.000000 -1.763483
vn 0.0000 1.0000 0.0000
usemtl None
s off
f 167//24 166//24 168//24
o Plane
v 0.383767 0.000000 -1.215244
v -0.383767 0.000000 -1.215244
v 0.000000 0.000000 -1.763483
vn 0.0000 1.0000 0.0000
usemtl None
s off
f 170//25 169//25 171//25
o Plane
v 0.383767 0.000000 -1.215244
v -0.383767 0.000000 -1.215244
v 0.000000 0.000000 -1.763483
vn 0.0000 1.0000 0.0000
usemtl None
s off
f 173//26 172//26 174//26
o Plane
v 0.383767 0.000000 -1.215244
v -0.383767 0.000000 -1.215244
v 0.000000 0.000000 -1.763483
vn 0.0000 1.0000 0.0000
usemtl None
s off
f 176//27 175//27 177//27
o Plane
v 0.383767 0.000000 -1.215244
v -0.383767 0.000000 -1.215244
v 0.000000 0.000000 -1.763483
vn 0.0000 1.0000 0.0000
usemtl None
s off
f 179//28 178//28 180//28
o Plane
v 0.383767 0.000000 -1.215244
v -0.383767 0.000000 -1.215244
v 0.000000 0.000000 -1.763483
vn 0.0000 1.0000 0.0000
usemtl None
s off
f 182//29 181//29 183//29
o Plane
v 0.383767 0.000000 -1.215244
v -0.383767 0.000000 -1.215244
v 0.000000 0.000000 -1.763483
vn 0.0000 1.0000 0.0000
usemtl None
s off
f 185//30 184//30 186//30
o Plane
v 0.383767 0.000000 -1.215244
v -0.383767 0.000000 -1.215244
v 0.000000 0.000000 -1.763483
vn 0.0000 1.0000 0.0000
usemtl None
s off
f 188//31 187//31 189//31
o Plane
v 0.383767 0.000000 -1.215244
v -0.383767 0.000000 -1.215244
v 0.000000 0.000000 -1.763483
vn 0.0000 1.0000 0.0000
usemtl None
s off
f 191//32 190//32 192//32
o Plane
v 0.383767 0.000000 -1.215244
v -0.383767 0.000000 -1.215244
v 0.000000 0.000000 -1.763483
vn 0.0000 1.0000 0.0000
usemtl None
s off
f 194//33 193//33 195//33
o Plane
v 0.383767 0.000000 -1.215244
v -0.383767 0.000000 -1.215244
v 0.000000 0.000000 -1.763483
vn 0.0000 1.0000 0.0000
usemtl None
s off
f 197//34 196//34 198//34
o Plane
v 0.383767 0.000000 -1.215244
v -0.383767 0.000000 -1.215244
v 0.000000 0.000000 -1.763483
vn 0.0000 1.0000 0.0000
usemtl None
s off
f 200//35 199//35 201//35
o Plane
v 0.383767 0.000000 -1.215244
v -0.383767 0.000000 -1.215244
v 0.000000 0.000000 -1.763483
vn 0.0000 1.0000 0.0000
usemtl None
s off
f 203//36 202//36 204//36
o Plane
v 0.383767 0.000000 -1.215244
v -0.383767 0.000000 -1.215244
v 0.000000 0.000000 -1.763483
vn 0.0000 1.0000 0.0000
usemtl None
s off
f 206//37 205//37 207//37
o Plane
v 0.383767 0.000000 -1.215244
v -0.383767 0.000000 -1.215244
v 0.000000 0.000000 -1.763483
vn 0.0000 1.0000 0.0000
usemtl None
s off
f 209//38 208//38 210//38
o Plane
v 0.383767 0.000000 -1.215244
v -0.383767 0.000000 -1.215244
v 0.000000 0.000000 -1.763483
vn 0.0000 1.0000 0.0000
usemtl None
s off
f 212//39 211//39 213//39
o Plane
v 0.383767 0.000000 -1.215244
v -0.383767 0.000000 -1.215244
v 0.000000 0.000000 -1.763483
vn 0.0000 1.0000 0.0000
usemtl None
s off
f 215//40 214//40 216//40
o Plane
v 0.383767 0.000000 -1.215244
v -0.383767 0.000000 -1.215244
v 0.000000 0.000000 -1.763483
vn 0.0000 1.0000 0.0000
usemtl None
s off
f 218//41 217//41 219//41
o Plane
v 0.383767 0.000000 -1.215244
v -0.383767 0.000000 -1.215244
v 0.000000 0.000000 -1.763483
vn 0.0000 1.0000 0.0000
usemtl None
s off
f 221//42 220//42 222//42
o Plane
v 0.383767 0.000000 -1.215244
v -0.383767 0.000000 -1.215244
v 0.000000 0.000000 -1.763483
vn 0.0000 1.0000 0.0000
usemtl None
s off
f 224//43 223//43 225//43
o Plane
v 0.383767 0.000000 -1.215244
v -0.383767 0.000000 -1.215244
v 0.000000 0.000000 -1.763483
vn 0.0000 1.0000 0.0000
usemtl None
s off
f 227//44 226//44 228//44
o Plane
v 0.383767 0.000000 -1.215244
v -0.383767 0.000000 -1.215244
v 0.000000 0.000000 -1.763483
vn 0.0000 1.0000 0.0000
usemtl None
s off
f 230//45 229//45 231//45
o Plane
v 0.383767 0.000000 -1.215244
v -0.383767 0.000000 -1.215244
v 0.000000 0.000000 -1.763483
vn 0.0000 1.0000 0.0000
usemtl None
s off
f 233//46 232//46 234//46
o Plane
v 0.383767 0.000000 -1.215244
v -0.383767 0.000000 -1.215244
v 0.000000 0.000000 -1.763483
vn 0.0000 1.0000 0.0000
usemtl None
s off
f 236//47 235//47 237//47
o Plane
v 0.383767 0.000000 -1.215244
v -0.383767 0.000000 -1.215244
v 0.000000 0.000000 -1.763483
vn 0.0000 1.0000 0.0000
usemtl None
s off
f 239//48 238//48 240//48
o Plane
v 0.383767 0.000000 -1.215244
v -0.383767 0.000000 -1.215244
v 0.000000 0.000000 -1.763483
vn 0.0000 1.0000 0.0000
usemtl None
s off
f 242//49 241//49 243//49
o Plane
v 0.383767 0.000000 -1.215244
v -0.383767 0.000000 -1.215244
v 0.000000 0.000000 -1.763483
vn 0.0000 1.0000 0.0000
usemtl None
s off
f 245//50 244//50 246//50
o Plane
v 0.383767 0.000000 -1.215244
v -0.383767 0.000000 -1.215244
v 0.000000 0.000000 -1.763483
vn 0.0000 1.0000 0.0000
usemtl None
s off
f 248//51 247//51 249//51
o Plane
v 0.383767 0.000000 -1.215244
v -0.383767 0.000000 -1.215244
v 0.000000 0.000000 -1.763483
vn 0.0000 1.0000 0.0000
usemtl None
s off
f 251//52 250//52 252//52
o Plane
v 0.383767 0.000000 -1.215244
v -0.383767 0.000000 -1.215244
v 0.000000 0.000000 -1.763483
vn 0.0000 1.0000 0.0000
usemtl None
s off
f 254//53 253//53 255//53
o Plane
v 0.383767 0.000000 -1.215244
v -0.383767 0.000000 -1.215244
v 0.000000 0.000000 -1.763483
vn 0.0000 1.0000 0.0000
usemtl None
s off
f 257//54 256//54 258//54
o Plane
v 0.383767 0.000000 -1.215244
v -0.383767 0.000000 -1.215244
v 0.000000 0.000000 -1.763483
vn 0.0000 1.0000 0.0000
usemtl None
s off
f 260//55 259//55 261//55
o Plane
v 0.383767 0.000000 -1.215244
v -0.383767 0.000000 -1.215244
v 0.000000 0.000000 -1.763483
vn 0.0000 1.0000 0.0000
usemtl None
s off
f 263//56 262//56 264//56
o Plane
v 0.383767 0.000000 -1.215244
v -0.383767 0.000000 -1.215244
v 0.000000 0.000000 -1.763483
vn 0.0000 1.0000 0.0000
usemtl None
s off
f 266//57 265//57 267//57
o Plane
v 0.383767 0.000000 -1.215244
v -0.383767 0.000000 -1.215244
v 0.000000 0.000000 -1.763483
vn 0.0000 1.0000 0.0000
usemtl None
s off
f 269//58 268//58 270//58
o Plane
v 0.383767 0.000000 -1.215244
v -0.383767 0.000000 -1.215244
v 0.000000 0.000000 -1.763483
vn 0.0000 1.0000 0.0000
usemtl None
s off
f 272//59 271//59 273//59
o Plane
v 0.383767 0.000000 -1.215244
v -0.383767 0.000000 -1.215244
v 0.000000 0.000000 -1.763483
vn 0.0000 1.0000 0.0000
usemtl None
s off
f 275//60 274//60 276//60
o Plane
v 0.383767 0.000000 -1.215244
v -0.383767 0.000000 -1.215244
v 0.000000 0.000000 -1.763483
vn 0.0000 1.0000 0.0000
usemtl None
s off
f 278//61 277//61 279//61
o Plane
v 0.383767 0.000000 -1.215244
v -0.383767 0.000000 -1.215244
v 0.000000 0.000000 -1.763483
vn 0.0000 1.0000 0.0000
usemtl None
s off
f 281//62 280//62 282//62
o Plane
v 0.383767 0.000000 -1.215244
v -0.383767 0.000000 -1.215244
v 0.000000 0.000000 -1.763483
vn 0.0000 1.0000 0.0000
usemtl None
s off
f 284//63 283//63 285//63
o Plane
v 0.383767 0.000000 -1.215244
v -0.383767 0.000000 -1.215244
v 0.000000 0.000000 -1.763483
vn 0.0000 1.0000 0.0000
usemtl None
s off
f 287//64 286//64 288//64
o Plane
v 0.383767 0.000000 -1.215244
v -0.383767 0.000000 -1.215244
v 0.000000 0.000000 -1.763483
vn 0.0000 1.0000 0.0000
usemtl None
s off
f 290//65 289//65 291//65
o Plane
v 0.383767 0.000000 -1.215244
v -0.383767 0.000000 -1.215244
v 0.000000 0.000000 -1.763483
vn 0.0000 1.0000 0.0000
usemtl None
s off
f 293//66 292//66 294//66
o Plane
v 0.383767 0.000000 -1.215244
v -0.383767 0.000000 -1.215244
v 0.000000 0.000000 -1.763483
vn 0.0000 1.0000 0.0000
usemtl None
s off
f 296//67 295//67 297//67
o Plane
v 0.383767 0.000000 -1.215244
v -0.383767 0.000000 -1.215244
v 0.000000 0.000000 -1.763483
vn 0.0000 1.0000 0.0000
usemtl None
s off
f 299//68 298//68 300//68
o Plane
v 0.383767 0.000000 -1.215244
v -0.383767 0.000000 -1.215244
v 0.000000 0.000000 -1.763483
vn 0.0000 1.0000 0.0000
usemtl None
s off
f 302//69 301//69 303//69
o Plane
v 0.383767 0.000000 -1.215244
v -0.383767 0.000000 -1.215244
v 0.000000 0.000000 -1.763483
vn 0.0000 1.0000 0.0000
usemtl None
s off
f 305//70 304//70 306//70
o Plane
v 0.383767 0.000000 -1.215244
v -0.383767 0.000000 -1.215244
v 0.000000 0.000000 -1.763483
vn 0.0000 1.0000 0.0000
usemtl None
s off
f 308//71 307//71 309//71
o Plane
v 0.383767 0.000000 -1.215244
v -0.383767 0.000000 -1.215244
v 0.000000 0.000000 -1.763483
vn 0.0000 1.0000 0.0000
usemtl None
s off
f 311//72 310//72 312//72
o Plane
v 0.383767 0.000000 -1.215244
v -0.383767 0.000000 -1.215244
v 0.000000 0.000000 -1.763483
vn 0.0000 1.0000 0.0000
usemtl None
s off
f 314//73 313//73 315//73
o Plane
v 0.383767 0.000000 -1.215244
v -0.383767 0.000000 -1.215244
v 0.000000 0.000000 -1.763483
vn 0.0000 1.0000 0.0000
usemtl None
s off
f 317//74 316//74 318//74
o Plane
v 0.383767 0.000000 -1.215244
v -0.383767 0.000000 -1.215244
v 0.000000 0.000000 -1.763483
vn 0.0000 1.0000 0.0000
usemtl None
s off
f 320//75 319//75 321//75
o Plane
v 0.383767 0.000000 -1.215244
v -0.383767 0.000000 -1.215244
v 0.000000 0.000000 -1.763483
vn 0.0000 1.0000 0.0000
usemtl None
s off
f 323//76 322//76 324//76
o Plane
v 0.383767 0.000000 -1.215244
v -0.383767 0.000000 -1.215244
v 0.000000 0.000000 -1.763483
vn 0.0000 1.0000 0.0000
usemtl None
s off
f 326//77 325//77 327//77
o Plane
v 0.383767 0.000000 -1.215244
v -0.383767 0.000000 -1.215244
v 0.000000 0.000000 -1.763483
vn 0.0000 1.0000 0.0000
usemtl None
s off
f 329//78 328//78 330//78
o Plane
v 0.383767 0.000000 -1.215244
v -0.383767 0.000000 -1.215244
v 0.000000 0.000000 -1.763483
vn 0.0000 1.0000 0.0000
usemtl None
s off
f 332//79 331//79 333//79
o Plane
v 0.383767 0.000000 -1.215244
v -0.383767 0.000000 -1.215244
v 0.000000 0.000000 -1.763483
vn 0.0000 1.0000 0.0000
usemtl None
s off
f 335//80 334//80 336//80
o Plane
v 0.383767 0.000000 -1.215244
v -0.383767 0.000000 -1.215244
v 0.000000 0.000000 -1.763483
vn 0.0000 1.0000 0.0000
usemtl None
s off
f 338//81 337//81 339//81
o Plane
v 0.383767 0.000000 -1.215244
v -0.383767 0.000000 -1.215244
v 0.000000 0.000000 -1.763483
vn 0.0000 1.0000 0.0000
usemtl None
s off
f 341//82 340//82 342//82
o Plane
v 0.383767 0.000000 -1.215244
v -0.383767 0.000000 -1.215244
v 0.000000 0.000000 -1.763483
vn 0.0000 1.0000 0.0000
usemtl None
s off
f 344//83 343//83 345//83
o Plane
v 0.383767 0.000000 -1.215244
v -0.383767 0.000000 -1.215244
v 0.000000 0.000000 -1.763483
vn 0.0000 1.0000 0.0000
usemtl None
s off
f 347//84 346//84 348//84
o Plane
v 0.383767 0.000000 -1.215244
v -0.383767 0.000000 -1.215244
v 0.000000 0.000000 -1.763483
vn 0.0000 1.0000 0.0000
usemtl None
s off
f 350//85 349//85 351//85
o Plane
v 0.383767 0.000000 -1.215244
v -0.383767 0.000000 -1.215244
v 0.000000 0.000000 -1.763483
vn 0.0000 1.0000 0.0000
usemtl None
s off
f 353//86 352//86 354//86
o Plane
v 0.383767 0.000000 -1.215244
v -0.383767 0.000000 -1.215244
v 0.000000 0.000000 -1.763483
vn 0.0000 1.0000 0.0000
usemtl None
s off
f 356//87 355//87 357//87
o Plane
v 0.383767 0.000000 -1.215244
v -0.383767 0.000000 -1.215244
v 0.000000 0.000000 -1.763483
vn 0.0000 1.0000 0.0000
usemtl None
s off
f 359//88 358//88 360//88
o Plane
v 0.383767 0.000000 -1.215244
v -0.383767 0.000000 -1.215244
v 0.000000 0.000000 -1.763483
vn 0.0000 1.0000 0.0000
usemtl None
s off
f 362//89 361//89 363//89
o Plane
v 0.383767 0.000000 -1.215244
v -0.383767 0.000000 -1.215244
v 0.000000 0.000000 -1.763483
vn 0.0000 1.0000 0.0000
usemtl None
s off
f 365//90 364//90 366//90
o Plane
v 0.383767 0.000000 -1.215244
v -0.383767 0.000000 -1.215244
v 0.000000 0.000000 -1.763483
vn 0.0000 1.0000 0.0000
usemtl None
s off
f 368//91 367//91 369//91
o Plane
v 0.383767 0.000000 -1.215244
v -0.383767 0.000000 -1.215244
v 0.000000 0.000000 -1.763483
vn 0.0000 1.0000 0.0000
usemtl None
s off
f 371//92 370//92 372//92
o Plane
v 0.383767 0.000000 -1.215244
v -0.383767 0.000000 -1.215244
v 0.000000 0.000000 -1.763483
vn 0.0000 1.0000 0.0000
usemtl None
s off
f 374//93 373//93 375//93
o Plane
v 0.383767 0.000000 -1.215244
v -0.383767 0.000000 -1.215244
v 0.000000 0.000000 -1.763483
vn 0.0000 1.0000 0.0000
usemtl None
s off
f 377//94 376//94 378//94
o Plane
v 0.383767 0.000000 -1.215244
v -0.383767 0.000000 -1.215244
v 0.000000 0.000000 -1.763483
vn 0.0000 1.0000 0.0000
usemtl None
s off
f 380//95 379//95 381//95
o Plane
v 0.383767 0.000000 -1.215244
v -0.383767 0.000000 -1.215244
v 0.000000 0.000000 -1.763483
vn 0.0000 1.0000 0.0000
usemtl None
s off
f 383//96 382//96 384//96
o Plane
v 0.383767 0.000000 -1.215244
v -0.383767 0.000000 -1.215244
v 0.000000 0.000000 -1.763483
vn 0.0000 1.0000 0.0000
usemtl None
s off
f 386//97 385//97 387//97
o Plane
v 0.383767 0.000000 -1.215244
v -0.383767 0.000000 -1.215244
v 0.000000 0.000000 -1.763483
vn 0.0000 1.0000 0.0000
usemtl None
s off
f 389//98 388//98 390//98
o Plane
v 0.383767 0.000000 -1.215244
v -0.383767 0.000000 -1.215244
v 0.000000 0.000000 -1.763483
vn 0.0000 1.0000 0.0000
usemtl None
s off
f 392//99 391//99 393//99
o Plane
v 0.383767 0.000000 -1.215244
v -0.383767 0.000000 -1.215244
v 0.000000 0.000000 -1.763483
vn 0.0000 1.0000 0.0000
usemtl None
s off
f 395//100 394//100 396//100
o Plane
v 0.383767 0.000000 -1.215244
v -0.383767 0.000000 -1.215244
v 0.000000 0.000000 -1.763483
vn 0.0000 1.0000 0.0000
usemtl None
s off
f 398//101 397//101 399//101
o Circle
v 0.000000 0.000000 -1.000000
v -0.195090 0.000000 -0.980785
v -0.382683 0.000000 -0.923880
v -0.555570 0.000000 -0.831470
v -0.707107 0.000000 -0.707107
v -0.831470 0.000000 -0.555570
v -0.923880 0.000000 -0.382683
v -0.980785 0.000000 -0.195090
v -1.000000 0.000000 -0.000000
v -0.980785 0.000000 0.195090
v -0.923880 0.000000 0.382683
v -0.831470 0.000000 0.555570
v -0.707107 0.000000 0.707107
v -0.555570 0.000000 0.831470
v -0.382683 0.000000 0.923880
v -0.195090 0.000000 0.980785
v 0.000000 0.000000 1.000000
v 0.195091 0.000000 0.980785
v 0.382684 0.000000 0.923879
v 0.555571 0.000000 0.831469
v 0.707107 0.000000 0.707106
v 0.831470 0.000000 0.555570
v 0.923880 0.000000 0.382683
v 0.980785 0.000000 0.195089
v 1.000000 0.000000 -0.000001
v 0.980785 0.000000 -0.195091
v 0.923879 0.000000 -0.382684
v 0.831469 0.000000 -0.555571
v 0.707106 0.000000 -0.707108
v 0.555569 0.000000 -0.831470
v 0.382682 0.000000 -0.923880
v 0.195089 0.000000 -0.980786
vn 0.0000 1.0000 0.0000
usemtl None
s off
f 401//102 402//102 403//102 404//102 405//102 406//102 407//102 408//102 409//102 410//102 411//102 412//102 413//102 414//102 415//102 416//102 417//102 418//102 419//102 420//102 421//102 422//102 423//102 424//102 425//102 426//102 427//102 428//102 429//102 430//102 431//102 400//102
